<svg xmlns="http://www.w3.org/2000/svg" width="18" height="17" viewBox="0 0 18 17"><g><g><path fill="#343e5c" d="M18 4.052L17 7.04c-.37.838-.895 1.992-2 1.992H5.36l.118.996H18l-1 1.991H4.352l-.643.076L2.522 2.06H1c-.552 0-1-.446-1-.995C0 .516.352.008.905.008L4.29-.006l.254 2.15c.125-.048.267-.083.455-.083h12c1.105 0 1 .892 1 1.991zM6 13.015c1.105 0 2 .89 2 1.992 0 1.1-.895 1.991-2 1.991s-2-.891-2-1.99c0-1.102.895-1.993 2-1.993zm8 0c1.105 0 2 .89 2 1.992 0 1.1-.895 1.991-2 1.991-1.104 0-2-.891-2-1.99 0-1.102.896-1.993 2-1.993z"/></g></g></svg>