<svg xmlns="http://www.w3.org/2000/svg" width="85" height="32" viewBox="0 0 85 32"><defs><clipPath id="yycpa"><path fill="#fff" d="M15.997 0h53.006C77.838 0 85 7.162 85 15.997v.006C85 24.838 77.838 32 69.003 32H15.997C7.162 32 0 24.838 0 16.003v-.006C0 7.162 7.162 0 15.997 0z"/></clipPath></defs><g><g><path fill="none" stroke="#e3e8f0" stroke-miterlimit="50" stroke-width="4" d="M15.997 0h53.006C77.838 0 85 7.162 85 15.997v.006C85 24.838 77.838 32 69.003 32H15.997C7.162 32 0 24.838 0 16.003v-.006C0 7.162 7.162 0 15.997 0z" clip-path="url(&quot;#yycpa&quot;)"/></g><g><g><text dominant-baseline="text-before-edge" style="text-transform:uppercase" fill="#343e5c" font-family="'Montserrat','Montserrat-Regular'" font-size="11" font-style="none" font-weight="400" transform="translate(18 12)"><tspan style="font-kerning:normal" letter-spacing="1.1">S</tspan><tspan style="font-kerning:normal" letter-spacing="1.1">ign In</tspan></text></g></g></g></svg>