<svg xmlns="http://www.w3.org/2000/svg" width="235" height="113" viewBox="0 0 235 113"><defs><mask id="vvopb" width="2" height="2" x="-1" y="-1"><path fill="#fff" d="M35 15h165v42H35z"/><path d="M55.996 15h123.008C190.6 15 200 24.4 200 35.996v.008C200 47.6 190.6 57 179.004 57H55.996C44.4 57 35 47.6 35 36.004v-.008C35 24.4 44.4 15 55.996 15z"/></mask><filter id="vvopa" width="265" height="162" x="-15" y="-35" filterUnits="userSpaceOnUse"><feOffset dy="20" in="SourceGraphic" result="FeOffset1049Out"/><feGaussianBlur in="FeOffset1049Out" result="FeGaussianBlur1050Out" stdDeviation="16 16"/></filter></defs><g><g><g filter="url(#vvopa)"><path fill="none" d="M55.996 15h123.008C190.6 15 200 24.4 200 35.996v.008C200 47.6 190.6 57 179.004 57H55.996C44.4 57 35 47.6 35 36.004v-.008C35 24.4 44.4 15 55.996 15z" mask="url(&quot;#vvopb&quot;)"/><path fill="#a8adbb" fill-opacity=".62" d="M55.996 15h123.008C190.6 15 200 24.4 200 35.996v.008C200 47.6 190.6 57 179.004 57H55.996C44.4 57 35 47.6 35 36.004v-.008C35 24.4 44.4 15 55.996 15z"/></g><path fill="#2754eb" d="M55.996 15h123.008C190.6 15 200 24.4 200 35.996v.008C200 47.6 190.6 57 179.004 57H55.996C44.4 57 35 47.6 35 36.004v-.008C35 24.4 44.4 15 55.996 15z"/></g><g><g><text dominant-baseline="text-before-edge" style="text-transform:uppercase" fill="#fff" font-family="'Montserrat','Montserrat-Regular'" font-size="11" font-style="none" font-weight="400" transform="translate(87 32)"><tspan style="font-kerning:normal" letter-spacing="1.1">B</tspan><tspan style="font-kerning:normal" letter-spacing="1.1">uy Now</tspan></text></g></g></g></svg>