<svg xmlns="http://www.w3.org/2000/svg" width="42" height="42" viewBox="0 0 42 42"><defs><clipPath id="utcfa"><path fill="#fff" d="M21 0c11.598 0 21 9.402 21 21s-9.402 21-21 21S0 32.598 0 21 9.402 0 21 0z"/></clipPath></defs><g><g opacity=".2"><path fill="none" stroke="#fff" stroke-miterlimit="50" stroke-width="4" d="M21 0c11.598 0 21 9.402 21 21s-9.402 21-21 21S0 32.598 0 21 9.402 0 21 0z" clip-path="url(&quot;#utcfa&quot;)"/></g><g><path fill="#fff" d="M18.298 24.17l3.167-3.156-3.167-3.157a1.08 1.08 0 0 1 0-1.531 1.088 1.088 0 0 1 1.534 0l3.835 3.824c.237.236.341.554.313.863.028.309-.076.628-.313.864L19.832 25.7a1.086 1.086 0 0 1-1.534 0 1.08 1.08 0 0 1 0-1.53z"/></g></g></svg>